# xmcd CD database file
#
# Track frame offsets:
#	150
#	17010
#	37308
#	55760
#	74358
#	88188
#	107053
#	122200
#	137918
#	149373
#	175300
#
# Disc length: 2479 seconds
#
# Revision: 0
# Processed by: cddbd v1.5.1PL0 Copyright (c) Steve Scherf et al.
# Submitted via: CDex 1.50beta9
#
DISCID=a609ad0b
DTITLE=LOVE NOTES - ときをこえて
DYEAR=1998
DGENRE=Jazz
TTITLE0=Paradise
TTITLE1=Darkness
TTITLE2=All As One(Folky)
TTITLE3=Toki 'O Koete
TTITLE4=Koke'e
TTITLE5=Holey Fin
TTITLE6=Thru The Night
TTITLE7=Ka Wai Lehua 'A'ala Ka Honua
TTITLE8=Pearly Shells
TTITLE9=Voyage
TTITLE10=The Spirit Of Aloha(English)
EXTD=YEAR: 1998
EXTT0=
EXTT1=
EXTT2=
EXTT3=
EXTT4=
EXTT5=
EXTT6=
EXTT7=
EXTT8=
EXTT9=
EXTT10=
PLAYORDER=
